<?xml version="1.0" standalone="no"?>
<!DOCTYPE svg PUBLIC "-//W3C//DTD SVG 20010904//EN"
 "http://www.w3.org/TR/2001/REC-SVG-20010904/DTD/svg10.dtd">
<svg version="1.0" xmlns="http://www.w3.org/2000/svg"
 width="1064.000000pt" height="1064.000000pt" viewBox="0 0 1064.000000 1064.000000"
 preserveAspectRatio="xMidYMid meet">
<metadata>
Created by potrace 1.14, written by Peter Selinger 2001-2017
</metadata>
<g transform="translate(0.000000,1064.000000) scale(0.100000,-0.100000)"
fill="#000000" stroke="none">
<path d="M2461 9841 c-171 -64 -301 -222 -325 -397 -3 -21 -8 -187 -11 -369
-6 -390 -17 -998 -30 -1715 -2 -140 -7 -415 -11 -610 -11 -642 -12 -694 -19
-847 l-7 -153 39 -1 c21 0 67 -2 103 -3 75 -4 448 -18 500 -20 31 -1 35 -4 34
-26 -3 -53 -14 -176 -18 -207 -3 -17 -7 -61 -11 -98 -3 -37 -7 -81 -10 -99 -2
-17 -9 -78 -15 -136 -6 -58 -13 -121 -15 -140 -3 -19 -7 -64 -10 -100 -3 -36
-7 -81 -10 -100 -2 -19 -7 -60 -10 -90 -5 -51 -20 -191 -30 -285 -2 -22 -7
-67 -10 -100 -3 -33 -8 -76 -10 -95 -2 -19 -7 -62 -10 -95 -3 -33 -8 -76 -10
-95 -2 -19 -7 -66 -10 -105 -3 -38 -8 -81 -10 -95 -4 -24 -8 -58 -19 -180 -3
-30 -13 -118 -21 -195 -18 -167 -23 -213 -30 -285 -3 -30 -8 -76 -10 -102 -3
-27 -7 -69 -10 -95 -11 -113 -16 -160 -20 -188 -2 -16 -6 -56 -9 -87 -9 -91
-18 -170 -22 -203 -2 -16 -7 -69 -10 -116 -6 -85 -6 -86 21 -107 31 -25 53
-27 89 -11 31 14 43 46 51 132 4 37 8 76 10 85 1 9 6 55 10 102 3 47 8 96 10
110 2 14 7 54 10 90 3 36 8 76 10 90 2 14 6 57 10 95 3 39 8 84 10 100 2 17 7
59 10 95 4 36 8 79 10 95 2 17 7 59 10 95 3 36 7 81 10 100 2 19 7 62 10 95 3
33 8 71 10 85 2 14 6 61 10 105 4 44 9 89 11 100 2 11 6 47 9 80 2 33 9 103
15 155 18 158 22 204 35 335 6 65 16 158 20 185 2 14 9 77 15 140 14 152 23
232 35 340 2 19 7 62 10 95 6 58 9 95 20 190 11 98 14 133 20 195 3 36 8 81
11 101 l5 37 87 -4 c48 -2 143 -6 212 -9 69 -3 195 -8 280 -11 85 -4 189 -8
230 -9 41 -2 88 -4 103 -4 l29 -1 -7 -102 c-4 -56 -8 -110 -10 -119 -2 -9 -6
-61 -10 -115 -4 -55 -8 -110 -10 -124 -2 -14 -7 -68 -10 -120 -4 -52 -9 -102
-10 -112 -2 -10 -7 -62 -10 -115 -3 -54 -8 -109 -10 -123 -2 -14 -6 -65 -9
-115 -4 -49 -8 -106 -11 -125 -2 -19 -7 -71 -10 -115 -4 -44 -8 -98 -10 -120
-2 -22 -6 -74 -9 -115 -4 -41 -9 -95 -11 -120 -2 -25 -7 -79 -10 -120 -3 -41
-8 -95 -10 -120 -2 -25 -7 -79 -10 -120 -3 -41 -7 -95 -10 -120 -2 -25 -7 -79
-10 -120 -4 -41 -8 -95 -10 -120 -2 -25 -6 -79 -10 -120 -3 -41 -7 -91 -10
-110 -2 -19 -7 -73 -10 -120 -4 -47 -8 -101 -10 -120 -2 -19 -6 -73 -10 -120
-4 -47 -8 -101 -10 -120 -2 -19 -6 -71 -10 -115 -3 -44 -8 -100 -10 -125 -3
-25 -7 -76 -10 -115 -6 -72 -10 -121 -20 -235 -3 -36 -7 -87 -9 -115 -3 -27
-7 -83 -11 -123 -9 -86 4 -125 46 -142 38 -16 83 1 98 38 10 25 13 50 26 215
2 34 7 94 11 132 3 39 8 86 9 105 2 19 6 71 10 115 3 44 8 96 10 115 2 19 6
71 9 115 4 44 9 103 11 130 2 28 7 82 10 120 3 39 8 90 10 115 2 25 7 77 10
115 3 39 8 99 11 135 7 78 11 129 19 235 4 44 8 96 10 115 2 19 7 71 10 115 9
117 15 185 20 230 2 22 7 81 11 130 3 50 8 101 9 115 1 14 5 66 9 115 3 50 8
99 10 110 2 11 7 63 11 115 3 52 8 111 10 130 2 19 6 73 9 120 4 47 8 99 10
115 2 17 7 71 10 120 4 50 9 106 11 125 2 19 7 71 10 115 8 102 14 177 20 240
2 28 7 88 11 135 4 47 8 96 10 110 1 14 2 40 3 58 l1 34 198 -7 c108 -3 231
-8 272 -10 71 -3 291 -12 515 -20 92 -4 223 -9 490 -20 55 -3 163 -7 240 -10
217 -8 358 -15 361 -18 3 -2 25 -176 39 -302 3 -27 7 -66 10 -85 2 -19 7 -57
10 -85 3 -27 8 -66 11 -85 7 -50 11 -85 19 -165 4 -38 9 -77 10 -85 2 -9 6
-43 10 -75 3 -33 8 -73 10 -90 11 -85 39 -324 50 -422 3 -27 8 -61 10 -78 4
-28 12 -94 20 -160 2 -16 6 -52 10 -80 6 -52 20 -164 30 -250 3 -27 8 -66 10
-85 3 -19 7 -53 9 -75 10 -83 27 -222 33 -265 3 -25 7 -58 8 -75 2 -16 6 -55
10 -85 4 -30 8 -66 10 -80 1 -14 5 -47 9 -75 3 -27 13 -108 21 -180 9 -71 18
-141 20 -155 2 -14 7 -52 10 -85 3 -33 8 -69 10 -80 2 -11 4 -28 4 -38 1 -28
47 -67 79 -67 30 0 74 37 79 68 1 9 -2 44 -7 77 -5 33 -12 89 -15 125 -10 96
-14 130 -19 164 -3 17 -8 58 -11 91 -4 33 -8 71 -10 85 -6 43 -14 101 -26 205
-6 55 -13 111 -14 125 -2 14 -6 54 -10 90 -3 36 -8 72 -10 80 -2 8 -6 40 -10
70 -3 30 -8 71 -10 90 -6 47 -13 104 -20 170 -4 30 -8 66 -10 80 -2 14 -7 50
-10 80 -3 30 -8 69 -10 85 -2 17 -9 73 -15 125 -6 52 -13 106 -15 120 -2 14
-7 54 -10 90 -4 36 -9 74 -11 85 -2 10 -6 51 -10 90 -3 38 -8 79 -10 90 -5 23
-21 154 -29 240 -7 62 -12 102 -20 145 -2 14 -7 52 -10 85 -6 57 -40 350 -50
425 -3 19 -7 55 -9 80 l-5 46 42 -1 c84 -2 165 20 410 110 48 18 87 30 88 26
0 -3 2 -13 4 -22 1 -9 12 -70 24 -135 12 -66 24 -132 27 -149 2 -16 7 -41 9
-55 3 -14 9 -50 15 -80 5 -30 12 -68 15 -85 3 -16 7 -41 10 -55 2 -14 18 -104
35 -200 16 -96 32 -186 35 -200 6 -29 6 -28 40 -225 15 -82 29 -163 31 -180 3
-16 12 -66 20 -110 8 -44 17 -96 20 -115 2 -19 6 -46 9 -60 10 -46 15 -75 20
-105 3 -16 8 -43 11 -58 3 -16 7 -38 9 -50 1 -12 17 -101 34 -197 17 -96 33
-193 36 -215 4 -22 8 -47 10 -55 3 -8 12 -55 20 -105 9 -49 18 -103 21 -120 3
-16 10 -52 14 -80 5 -27 11 -61 14 -75 2 -14 14 -79 25 -145 12 -66 23 -131
26 -145 7 -31 9 -48 35 -195 11 -66 22 -133 25 -150 3 -16 8 -41 10 -55 3 -14
14 -77 25 -140 11 -63 22 -126 25 -140 2 -13 12 -65 20 -114 18 -105 32 -132
76 -141 68 -15 106 35 90 119 -9 46 -17 92 -26 151 -9 61 -37 210 -40 215 -1
3 -6 28 -9 55 -4 28 -9 59 -11 70 -6 25 -14 69 -21 115 -2 19 -10 59 -15 89
-6 30 -13 64 -14 75 -7 44 -44 252 -49 276 -3 14 -7 39 -10 55 -2 17 -11 73
-20 125 -24 135 -23 132 -30 160 -3 14 -7 39 -10 55 -9 66 -47 279 -51 284 -1
3 -6 31 -10 61 -4 30 -8 58 -10 61 -2 3 -6 27 -10 55 -3 27 -7 56 -10 64 -2 8
-7 29 -9 45 -3 17 -8 41 -10 55 -3 14 -8 41 -10 60 -3 19 -8 46 -10 60 -3 14
-12 66 -20 115 -9 50 -18 101 -21 115 -3 14 -19 104 -35 200 -17 96 -40 227
-51 290 -11 63 -22 124 -24 135 -2 11 -11 60 -20 110 -9 49 -18 101 -20 115
-2 14 -15 90 -29 170 -14 80 -28 159 -31 175 -3 17 -7 40 -9 51 -2 12 -7 37
-10 55 -4 19 -12 67 -19 107 l-13 73 35 15 c20 8 61 23 91 34 30 10 98 34 150
53 52 19 160 58 240 86 220 79 284 104 292 115 3 5 5 30 3 55 -2 25 -7 87 -10
138 -13 221 -62 335 -198 466 -108 104 -241 161 -403 172 -124 8 -208 14 -289
20 -118 9 -196 14 -290 20 -163 11 -208 15 -210 17 -2 2 -6 32 -9 68 -4 36 -9
82 -11 103 -3 20 -7 54 -9 75 -3 20 -8 61 -11 90 -4 29 -8 69 -10 90 -2 20 -6
55 -9 77 -3 22 -10 85 -16 140 -6 55 -13 111 -15 125 -4 24 -8 66 -20 175 -3
28 -8 68 -10 90 -4 35 -10 82 -31 265 -3 25 -9 79 -14 120 -12 101 -20 166
-26 220 -2 25 -7 61 -9 80 -3 19 -8 62 -11 95 -4 33 -8 71 -9 85 -1 14 -5 45
-9 70 -3 25 -8 66 -11 93 -13 119 -17 145 -32 192 -48 155 -170 302 -308 372
-71 36 -173 62 -267 68 -51 3 -115 8 -143 10 -27 2 -84 7 -125 10 -41 2 -109
7 -150 10 -146 10 -316 23 -410 30 -78 6 -163 12 -285 20 -49 3 -108 8 -130
10 -38 3 -142 11 -280 20 -33 2 -96 7 -140 10 -44 3 -107 8 -140 10 -33 2 -94
7 -135 10 -41 3 -104 7 -140 10 -157 11 -327 24 -405 31 -22 2 -143 6 -270 9
-213 5 -234 4 -284 -14z"/>
</g>
</svg>
