<?xml version="1.0"?><svg xmlns="http://www.w3.org/2000/svg"  viewBox="0 0 80 80" width="80px" height="80px">    <path d="M 20 10 C 14.488666 10 10 14.488666 10 20 L 10 60 C 10 65.511334 14.488666 70 20 70 L 60 70 C 65.511334 70 70 65.511334 70 60 L 70 20 C 70 14.488666 65.511334 10 60 10 L 20 10 z M 21 12 L 23 12 A 1 1 0 0 0 24 13 A 1 1 0 0 0 25 12 L 60 12 C 64.430666 12 68 15.569334 68 20 L 68 27 A 1 1 0 0 0 67 28 A 1 1 0 0 0 68 29 L 68 60 C 68 64.430666 64.430666 68 60 68 L 20 68 C 15.569334 68 12 64.430666 12 60 L 12 29 A 1 1 0 0 0 13 28 A 1 1 0 0 0 12 27 L 12 20 C 12 15.907515 15.047443 12.557073 19.003906 12.068359 A 1 1 0 0 0 20 13 A 1 1 0 0 0 21 12 z M 16 15 A 1 1 0 0 0 15 16 A 1 1 0 0 0 16 17 A 1 1 0 0 0 17 16 A 1 1 0 0 0 16 15 z M 20 15 A 1 1 0 0 0 19 16 A 1 1 0 0 0 20 17 A 1 1 0 0 0 21 16 A 1 1 0 0 0 20 15 z M 24 15 A 1 1 0 0 0 23 16 A 1 1 0 0 0 24 17 A 1 1 0 0 0 25 16 A 1 1 0 0 0 24 15 z M 57 15 C 55.906937 15 55 15.906937 55 17 L 55 22 C 55 23.093063 55.906937 24 57 24 L 63 24 C 64.093063 24 65 23.093063 65 22 L 65 17 C 65 15.906937 64.093063 15 63 15 L 57 15 z M 57 17 L 63 17 L 63 22 L 57 22 L 57 17 z M 16 19 A 1 1 0 0 0 15 20 A 1 1 0 0 0 16 21 A 1 1 0 0 0 17 20 A 1 1 0 0 0 16 19 z M 20 19 A 1 1 0 0 0 19 20 A 1 1 0 0 0 20 21 A 1 1 0 0 0 21 20 A 1 1 0 0 0 20 19 z M 24 19 A 1 1 0 0 0 23 20 A 1 1 0 0 0 24 21 A 1 1 0 0 0 25 20 A 1 1 0 0 0 24 19 z M 16 23 A 1 1 0 0 0 15 24 A 1 1 0 0 0 16 25 A 1 1 0 0 0 17 24 A 1 1 0 0 0 16 23 z M 20 23 A 1 1 0 0 0 19 24 A 1 1 0 0 0 20 25 A 1 1 0 0 0 21 24 A 1 1 0 0 0 20 23 z M 24 23 A 1 1 0 0 0 23 24 A 1 1 0 0 0 24 25 A 1 1 0 0 0 25 24 A 1 1 0 0 0 24 23 z M 40 23 C 30.623004 23 23 30.623004 23 40 C 23 49.376996 30.623004 57 40 57 C 49.376996 57 57 49.376996 57 40 C 57 30.623004 49.376996 23 40 23 z M 40 25 C 48.296116 25 55 31.703884 55 40 C 55 48.296116 48.296116 55 40 55 C 31.703884 55 25 48.296116 25 40 C 25 31.703884 31.703884 25 40 25 z M 16 27 A 1 1 0 0 0 15 28 A 1 1 0 0 0 16 29 A 1 1 0 0 0 17 28 A 1 1 0 0 0 16 27 z M 20 27 A 1 1 0 0 0 19 28 A 1 1 0 0 0 20 29 A 1 1 0 0 0 21 28 A 1 1 0 0 0 20 27 z M 24 27 A 1 1 0 0 0 23 28 A 1 1 0 0 0 24 29 A 1 1 0 0 0 25 28 A 1 1 0 0 0 24 27 z M 56 27 A 1 1 0 0 0 55 28 A 1 1 0 0 0 56 29 A 1 1 0 0 0 57 28 A 1 1 0 0 0 56 27 z M 60 27 A 1 1 0 0 0 59 28 A 1 1 0 0 0 60 29 A 1 1 0 0 0 61 28 A 1 1 0 0 0 60 27 z M 64 27 A 1 1 0 0 0 63 28 A 1 1 0 0 0 64 29 A 1 1 0 0 0 65 28 A 1 1 0 0 0 64 27 z M 40 28 A 1 1 0 0 0 39 29 A 1 1 0 0 0 40 30 A 1 1 0 0 0 41 29 A 1 1 0 0 0 40 28 z M 44.210938 28.835938 A 1 1 0 0 0 43.210938 29.835938 A 1 1 0 0 0 44.210938 30.835938 A 1 1 0 0 0 45.210938 29.835938 A 1 1 0 0 0 44.210938 28.835938 z M 35.791016 28.837891 A 1 1 0 0 0 34.791016 29.837891 A 1 1 0 0 0 35.791016 30.837891 A 1 1 0 0 0 36.791016 29.837891 A 1 1 0 0 0 35.791016 28.837891 z M 32.222656 31.222656 A 1 1 0 0 0 31.222656 32.222656 A 1 1 0 0 0 32.222656 33.222656 A 1 1 0 0 0 33.222656 32.222656 A 1 1 0 0 0 32.222656 31.222656 z M 47.777344 31.222656 A 1 1 0 0 0 46.777344 32.222656 A 1 1 0 0 0 47.777344 33.222656 A 1 1 0 0 0 48.777344 32.222656 A 1 1 0 0 0 47.777344 31.222656 z M 50.164062 34.789062 A 1 1 0 0 0 49.164062 35.789062 A 1 1 0 0 0 50.164062 36.789062 A 1 1 0 0 0 51.164062 35.789062 A 1 1 0 0 0 50.164062 34.789062 z M 29.837891 34.791016 A 1 1 0 0 0 28.837891 35.791016 A 1 1 0 0 0 29.837891 36.791016 A 1 1 0 0 0 30.837891 35.791016 A 1 1 0 0 0 29.837891 34.791016 z M 29 39 A 1 1 0 0 0 28 40 A 1 1 0 0 0 29 41 A 1 1 0 0 0 30 40 A 1 1 0 0 0 29 39 z M 51 39 A 1 1 0 0 0 50 40 A 1 1 0 0 0 51 41 A 1 1 0 0 0 52 40 A 1 1 0 0 0 51 39 z M 50.164062 43.208984 A 1 1 0 0 0 49.164062 44.208984 A 1 1 0 0 0 50.164062 45.208984 A 1 1 0 0 0 51.164062 44.208984 A 1 1 0 0 0 50.164062 43.208984 z M 29.839844 43.210938 A 1 1 0 0 0 28.839844 44.210938 A 1 1 0 0 0 29.839844 45.210938 A 1 1 0 0 0 30.839844 44.210938 A 1 1 0 0 0 29.839844 43.210938 z M 32.220703 46.777344 A 1 1 0 0 0 31.220703 47.777344 A 1 1 0 0 0 32.220703 48.777344 A 1 1 0 0 0 33.220703 47.777344 A 1 1 0 0 0 32.220703 46.777344 z M 47.777344 46.777344 A 1 1 0 0 0 46.777344 47.777344 A 1 1 0 0 0 47.777344 48.777344 A 1 1 0 0 0 48.777344 47.777344 A 1 1 0 0 0 47.777344 46.777344 z M 35.792969 49.162109 A 1 1 0 0 0 34.792969 50.162109 A 1 1 0 0 0 35.792969 51.162109 A 1 1 0 0 0 36.792969 50.162109 A 1 1 0 0 0 35.792969 49.162109 z M 44.212891 49.162109 A 1 1 0 0 0 43.212891 50.162109 A 1 1 0 0 0 44.212891 51.162109 A 1 1 0 0 0 45.212891 50.162109 A 1 1 0 0 0 44.212891 49.162109 z M 40 50 A 1 1 0 0 0 39 51 A 1 1 0 0 0 40 52 A 1 1 0 0 0 41 51 A 1 1 0 0 0 40 50 z"/></svg>