<svg width="150" height="110" viewBox="0 0 150 110" fill="none" xmlns="http://www.w3.org/2000/svg">
<g filter="url(#filter0_d_105_46)">
<rect x="30.2413" width="75" height="75" rx="10" transform="rotate(22.9473 30.2413 0)" fill="#6A4E2E"/>
<rect x="31.3033" y="2.6215" width="71" height="71" rx="8" transform="rotate(22.9473 31.3033 2.6215)" stroke="black" stroke-width="4"/>
</g>
<path d="M71.3153 49.028C69.9585 52.3699 66.1521 53.9804 62.8135 52.625C59.4748 51.2696 57.8682 47.4616 59.225 44.1196C60.5818 40.7776 64.3882 39.1672 67.7268 40.5226C71.0655 41.878 72.6721 45.686 71.3153 49.028Z" fill="#794545"/>
<path d="M67.5952 47.5177C67.0734 48.8031 65.6094 49.4225 64.3253 48.9012C63.0412 48.3799 62.4232 46.9153 62.9451 45.6299C63.4669 44.3445 64.9309 43.7251 66.215 44.2464C67.4991 44.7677 68.1171 46.2323 67.5952 47.5177Z" fill="#FAE8A9"/>
<path d="M49.4597 40.1552C48.1029 43.4972 44.2965 45.1076 40.9578 43.7523C37.6192 42.3969 36.0125 38.5889 37.3693 35.2469C38.7261 31.9049 42.5325 30.2945 45.8712 31.6499C49.2098 33.0052 50.8165 36.8132 49.4597 40.1552Z" fill="#794545"/>
<path d="M45.7396 38.645C45.2177 39.9303 43.7537 40.5497 42.4696 40.0284C41.1855 39.5071 40.5676 38.0425 41.0894 36.7571C41.6113 35.4718 43.0753 34.8524 44.3594 35.3737C45.6435 35.895 46.2614 37.3596 45.7396 38.645Z" fill="#FAE8A9"/>
<path d="M65.4942 56.6954C62.6241 63.765 53.8434 66.8759 45.882 63.6438C37.9205 60.4117 33.7932 52.0605 36.6634 44.9909C39.5335 37.9213 48.3142 34.8104 56.2756 38.0425C64.237 41.2746 68.3643 49.6258 65.4942 56.6954Z" fill="#794545"/>
<path d="M60.9608 50.5174C60.3868 51.9313 58.7764 52.6127 57.3639 52.0392C55.9514 51.4658 55.2717 49.8547 55.8457 48.4408C56.4197 47.0269 58.0301 46.3455 59.4426 46.919C60.8551 47.4924 61.5349 49.1035 60.9608 50.5174Z" fill="black"/>
<path d="M48.8705 45.6091C48.2965 47.023 46.686 47.7043 45.2735 47.1309C43.861 46.5575 43.1813 44.9464 43.7553 43.5325C44.3293 42.1186 45.9398 41.4372 47.3523 42.0106C48.7648 42.5841 49.4445 44.1951 48.8705 45.6091Z" fill="black"/>
<path d="M59.1581 56.2919C57.8535 59.5053 52.7362 60.4622 47.7282 58.4291C42.7202 56.396 39.718 52.1429 41.0226 48.9294C42.3272 45.716 47.4446 44.7591 52.4526 46.7922C57.4606 48.8253 60.4627 53.0785 59.1581 56.2919Z" fill="#FAE8A9"/>
<path d="M52.648 53.649C52.0739 55.0629 50.4635 55.7442 49.051 55.1708C47.6385 54.5973 46.9588 52.9863 47.5328 51.5724C48.1068 50.1584 49.7172 49.4771 51.1297 50.0505C52.5422 50.624 53.222 52.235 52.648 53.649Z" fill="black"/>
<path d="M57.0272 36.1887C55.1999 35.4469 53.3158 35.0035 51.4475 34.8415C50.661 32.6284 48.9695 30.7487 46.6227 29.796C42.2601 28.0249 37.2887 30.1296 35.5169 34.4938C34.4956 37.0096 34.7598 39.7284 36.0025 41.9196C35.5446 42.6422 35.1448 43.4155 34.811 44.2378C31.4432 52.533 36.3592 61.9368 45.1304 65.4976C53.9011 69.0582 63.9793 65.7426 67.3466 57.4484C67.7289 56.5067 68.0045 55.5507 68.1798 54.5906C70.3674 53.7937 72.2227 52.1088 73.1677 49.781C74.9398 45.4162 72.8418 40.4402 68.4784 38.6688C66.1843 37.7375 63.722 37.8778 61.645 38.8549C60.2707 37.7817 58.7208 36.8763 57.0272 36.1887Z" stroke="black" stroke-width="4"/>
<g filter="url(#filter1_d_105_46)">
<path d="M88 77.675C99.9875 79.0829 108.59 86.3309 114.044 98.6221" stroke="#540D4D" stroke-width="6" stroke-linecap="round" stroke-linejoin="round"/>
</g>
<g filter="url(#filter2_d_105_46)">
<path d="M95.532 64.347C112.193 67.3205 122.273 78.4619 126.351 96.6391" stroke="white" stroke-width="6" stroke-linecap="round" stroke-linejoin="round"/>
</g>
<g filter="url(#filter3_d_105_46)">
<path d="M108.522 51.7013C120.556 57.1889 128.273 67.5159 132.034 81.9463" stroke="#22B3D2" stroke-width="6" stroke-linecap="round" stroke-linejoin="round"/>
</g>
<defs>
<filter id="filter0_d_105_46" x="0.10498" y="3.10498" width="100.096" height="100.096" filterUnits="userSpaceOnUse" color-interpolation-filters="sRGB">
<feFlood flood-opacity="0" result="BackgroundImageFix"/>
<feColorMatrix in="SourceAlpha" type="matrix" values="0 0 0 0 0 0 0 0 0 0 0 0 0 0 0 0 0 0 127 0" result="hardAlpha"/>
<feOffset dy="4"/>
<feGaussianBlur stdDeviation="2"/>
<feComposite in2="hardAlpha" operator="out"/>
<feColorMatrix type="matrix" values="0 0 0 0 0 0 0 0 0 0 0 0 0 0 0 0 0 0 0.25 0"/>
<feBlend mode="normal" in2="BackgroundImageFix" result="effect1_dropShadow_105_46"/>
<feBlend mode="normal" in="SourceGraphic" in2="effect1_dropShadow_105_46" result="shape"/>
</filter>
<filter id="filter1_d_105_46" x="80.9998" y="74.6748" width="40.0452" height="34.948" filterUnits="userSpaceOnUse" color-interpolation-filters="sRGB">
<feFlood flood-opacity="0" result="BackgroundImageFix"/>
<feColorMatrix in="SourceAlpha" type="matrix" values="0 0 0 0 0 0 0 0 0 0 0 0 0 0 0 0 0 0 127 0" result="hardAlpha"/>
<feOffset dy="4"/>
<feGaussianBlur stdDeviation="2"/>
<feComposite in2="hardAlpha" operator="out"/>
<feColorMatrix type="matrix" values="0 0 0 0 0 0 0 0 0 0 0 0 0 0 0 0 0 0 0.25 0"/>
<feBlend mode="normal" in2="BackgroundImageFix" result="effect1_dropShadow_105_46"/>
<feBlend mode="normal" in="SourceGraphic" in2="effect1_dropShadow_105_46" result="shape"/>
</filter>
<filter id="filter2_d_105_46" x="88.5315" y="61.3464" width="44.8201" height="46.2932" filterUnits="userSpaceOnUse" color-interpolation-filters="sRGB">
<feFlood flood-opacity="0" result="BackgroundImageFix"/>
<feColorMatrix in="SourceAlpha" type="matrix" values="0 0 0 0 0 0 0 0 0 0 0 0 0 0 0 0 0 0 127 0" result="hardAlpha"/>
<feOffset dy="4"/>
<feGaussianBlur stdDeviation="2"/>
<feComposite in2="hardAlpha" operator="out"/>
<feColorMatrix type="matrix" values="0 0 0 0 0 0 0 0 0 0 0 0 0 0 0 0 0 0 0.25 0"/>
<feBlend mode="normal" in2="BackgroundImageFix" result="effect1_dropShadow_105_46"/>
<feBlend mode="normal" in="SourceGraphic" in2="effect1_dropShadow_105_46" result="shape"/>
</filter>
<filter id="filter3_d_105_46" x="101.521" y="48.7007" width="37.5137" height="44.2463" filterUnits="userSpaceOnUse" color-interpolation-filters="sRGB">
<feFlood flood-opacity="0" result="BackgroundImageFix"/>
<feColorMatrix in="SourceAlpha" type="matrix" values="0 0 0 0 0 0 0 0 0 0 0 0 0 0 0 0 0 0 127 0" result="hardAlpha"/>
<feOffset dy="4"/>
<feGaussianBlur stdDeviation="2"/>
<feComposite in2="hardAlpha" operator="out"/>
<feColorMatrix type="matrix" values="0 0 0 0 0 0 0 0 0 0 0 0 0 0 0 0 0 0 0.25 0"/>
<feBlend mode="normal" in2="BackgroundImageFix" result="effect1_dropShadow_105_46"/>
<feBlend mode="normal" in="SourceGraphic" in2="effect1_dropShadow_105_46" result="shape"/>
</filter>
</defs>
</svg>
