<svg xmlns="http://www.w3.org/2000/svg"  viewBox="0 0 80 80" width="80px" height="80px"><path d="M 14 10 C 11.802666 10 10 11.802666 10 14 L 10 66 C 10 68.197334 11.802666 70 14 70 L 66 70 C 68.197334 70 70 68.197334 70 66 L 70 14 C 70 11.802666 68.197334 10 66 10 L 14 10 z M 14 12 L 66 12 C 67.116666 12 68 12.883334 68 14 L 68 66 C 68 67.116666 67.116666 68 66 68 L 14 68 C 12.883334 68 12 67.116666 12 66 L 12 14 C 12 12.883334 12.883334 12 14 12 z M 18 17 A 1 1 0 0 0 18 19 A 1 1 0 0 0 18 17 z M 22 17 A 1 1 0 0 0 22 19 A 1 1 0 0 0 22 17 z M 26 17 A 1 1 0 0 0 26 19 A 1 1 0 0 0 26 17 z M 30 17 A 1 1 0 0 0 30 19 A 1 1 0 0 0 30 17 z M 34 17 A 1 1 0 0 0 34 19 A 1 1 0 0 0 34 17 z M 38 17 A 1 1 0 0 0 38 19 A 1 1 0 0 0 38 17 z M 42 17 A 1 1 0 0 0 42 19 A 1 1 0 0 0 42 17 z M 46 17 A 1 1 0 0 0 46 19 A 1 1 0 0 0 46 17 z M 50 17 A 1 1 0 0 0 50 19 A 1 1 0 0 0 50 17 z M 54 17 A 1 1 0 0 0 54 19 A 1 1 0 0 0 54 17 z M 58 17 A 1 1 0 0 0 58 19 A 1 1 0 0 0 58 17 z M 62 17 A 1 1 0 0 0 62 19 A 1 1 0 0 0 62 17 z M 18 21 A 1 1 0 0 0 18 23 A 1 1 0 0 0 18 21 z M 62 21 A 1 1 0 0 0 62 23 A 1 1 0 0 0 62 21 z M 18 25 A 1 1 0 0 0 18 27 A 1 1 0 0 0 18 25 z M 41.039062 25 C 40.489063 25 40.039062 25.45 40.039062 26 C 40.039062 26 40 45.499844 40 45.589844 C 40 47.379844 38.380703 48.890625 36.470703 48.890625 C 34.620703 48.890625 33.119141 47.389062 33.119141 45.539062 C 33.119141 43.689062 34.620703 42.189453 36.470703 42.189453 C 36.560703 42.189453 36.640469 42.200938 36.730469 42.210938 L 36.880859 42.230469 C 37.160859 42.270469 37.450156 42.180234 37.660156 41.990234 C 37.880156 41.800234 38 41.530234 38 41.240234 L 38 37.039062 C 38 36.509062 37.590547 36.069063 37.060547 36.039062 L 36.960938 36.029297 C 36.800938 36.019297 36.640703 36.009766 36.470703 36.009766 C 31.220703 36.009766 26.949219 40.289062 26.949219 45.539062 C 26.949219 50.789062 31.220703 55.070312 36.470703 55.070312 C 41.730703 55.070312 46 50.789062 46 45.539062 L 46 36.560547 C 47.68 37.890547 49.900781 38.549609 52.050781 38.349609 C 52.570781 38.299609 52.960937 37.869375 52.960938 37.359375 L 52.960938 32.689453 C 52.960938 32.159453 52.549297 31.729453 52.029297 31.689453 C 48.899297 31.459453 46.380781 29.030391 46.050781 25.900391 C 46.000781 25.390391 45.570547 25 45.060547 25 L 41.039062 25 z M 62 25 A 1 1 0 0 0 62 27 A 1 1 0 0 0 62 25 z M 18 29 A 1 1 0 0 0 18 31 A 1 1 0 0 0 18 29 z M 62 29 A 1 1 0 0 0 62 31 A 1 1 0 0 0 62 29 z M 18 33 A 1 1 0 0 0 18 35 A 1 1 0 0 0 18 33 z M 62 33 A 1 1 0 0 0 62 35 A 1 1 0 0 0 62 33 z M 18 37 A 1 1 0 0 0 18 39 A 1 1 0 0 0 18 37 z M 62 37 A 1 1 0 0 0 62 39 A 1 1 0 0 0 62 37 z M 18 41 A 1 1 0 0 0 18 43 A 1 1 0 0 0 18 41 z M 62 41 A 1 1 0 0 0 62 43 A 1 1 0 0 0 62 41 z M 18 45 A 1 1 0 0 0 18 47 A 1 1 0 0 0 18 45 z M 62 45 A 1 1 0 0 0 62 47 A 1 1 0 0 0 62 45 z M 18 49 A 1 1 0 0 0 18 51 A 1 1 0 0 0 18 49 z M 62 49 A 1 1 0 0 0 62 51 A 1 1 0 0 0 62 49 z M 18 53 A 1 1 0 0 0 18 55 A 1 1 0 0 0 18 53 z M 62 53 A 1 1 0 0 0 62 55 A 1 1 0 0 0 62 53 z M 18 57 A 1 1 0 0 0 18 59 A 1 1 0 0 0 18 57 z M 62 57 A 1 1 0 0 0 62 59 A 1 1 0 0 0 62 57 z M 18 61 A 1 1 0 0 0 18 63 A 1 1 0 0 0 18 61 z M 22 61 A 1 1 0 0 0 22 63 A 1 1 0 0 0 22 61 z M 26 61 A 1 1 0 0 0 26 63 A 1 1 0 0 0 26 61 z M 30 61 A 1 1 0 0 0 30 63 A 1 1 0 0 0 30 61 z M 34 61 A 1 1 0 0 0 34 63 A 1 1 0 0 0 34 61 z M 38 61 A 1 1 0 0 0 38 63 A 1 1 0 0 0 38 61 z M 42 61 A 1 1 0 0 0 42 63 A 1 1 0 0 0 42 61 z M 46 61 A 1 1 0 0 0 46 63 A 1 1 0 0 0 46 61 z M 50 61 A 1 1 0 0 0 50 63 A 1 1 0 0 0 50 61 z M 54 61 A 1 1 0 0 0 54 63 A 1 1 0 0 0 54 61 z M 58 61 A 1 1 0 0 0 58 63 A 1 1 0 0 0 58 61 z M 62 61 A 1 1 0 0 0 62 63 A 1 1 0 0 0 62 61 z"/></svg>